# xmcd CD database file
#
# Track frame offsets:
#	150
#	12025
#	27700
#	45935
#	62025
#	86465
#	106922
#	122127
#	136602
#	149105
#	169880
#	188390
#	203805
#	214427
#	228482
#	240632
#	257840
#	288595
#
# Disc length: 4188 seconds
#
# Revision: 0
# Processed by: cddbd v1.5.1PL0 Copyright (c) Steve Scherf et al.
# Submitted via: CDex 1.51
#
DISCID=04105a12
DTITLE=東京レディス・オーケストラ - 胎教の音楽
DYEAR=1999
DGENRE=Other
TTITLE0=天使のセレナーデ
TTITLE1=ユモレスク
TTITLE2=アイルランドの子守歌
TTITLE3=マンドリン・セレナーデ
TTITLE4=月の光
TTITLE5=星に願いを
TTITLE6=ラ・ラルー
TTITLE7=愛のあいさつ
TTITLE8=ゆりかごの歌
TTITLE9=愛の夢 第3番
TTITLE10=ペチカ
TTITLE11=ハイドンのセレナーデ
TTITLE12=眠りの精
TTITLE13=江戸子守歌
TTITLE14=トロイメライ
TTITLE15=シューベルトのセレナーデ
TTITLE16=ピアノ協奏曲 第21番より 第2楽章
TTITLE17=ペッヘルベルのカノン
EXTD=YEAR: 1999
EXTT0=
EXTT1=
EXTT2=
EXTT3=
EXTT4=
EXTT5=
EXTT6=
EXTT7=
EXTT8=
EXTT9=
EXTT10=
EXTT11=
EXTT12=
EXTT13=
EXTT14=
EXTT15=
EXTT16=
EXTT17=
PLAYORDER=
